<svg width="83" height="84" viewBox="0 0 83 84" fill="none" xmlns="http://www.w3.org/2000/svg">
<g clip-path="url(#clip0_129_162)">
<path d="M74.1071 5.25H8.89286C6.53432 5.25 4.27239 6.07969 2.60466 7.55653C0.936923 9.03338 0 11.0364 0 13.125L0 70.875C0 72.9636 0.936923 74.9666 2.60466 76.4435C4.27239 77.9203 6.53432 78.75 8.89286 78.75H34.3209V53.7616H22.649V42H34.3209V33.0356C34.3209 22.8391 41.1758 17.2069 51.6749 17.2069C56.7031 17.2069 61.961 18.0009 61.961 18.0009V28.0088H56.1677C50.4596 28.0088 48.6791 31.1456 48.6791 34.3629V42H61.4219L59.3839 53.7616H48.6791V78.75H74.1071C76.4657 78.75 78.7276 77.9203 80.3953 76.4435C82.0631 74.9666 83 72.9636 83 70.875V13.125C83 11.0364 82.0631 9.03338 80.3953 7.55653C78.7276 6.07969 76.4657 5.25 74.1071 5.25Z" fill="#699BF7"/>
</g>
<defs>
<clipPath id="clip0_129_162">
<rect width="83" height="84" fill="white"/>
</clipPath>
</defs>
</svg>
