<svg width="93" height="73" viewBox="0 0 93 73" fill="none" xmlns="http://www.w3.org/2000/svg">
<g clip-path="url(#clip0_129_164)">
<path d="M79.24 62.2002H65.4604V45.2611C65.4604 41.2218 65.3685 36.022 58.2936 36.022C51.1166 36.022 50.0184 40.4231 50.0184 44.9671V62.1991H36.2391V27.3655H49.4673V32.1259H49.6526C50.9764 30.3491 52.8894 28.8874 55.1878 27.8965C57.4862 26.9056 60.084 26.4226 62.7045 26.4989C76.6709 26.4989 79.2458 33.71 79.2458 43.091L79.24 62.2002ZM20.6907 22.6043C16.2743 22.6048 12.6934 19.7949 12.6927 16.3283C12.692 12.8616 16.2714 10.0508 20.6878 10.0503C25.1042 10.0494 28.685 12.8593 28.6858 16.326C28.6862 17.9907 27.844 19.5874 26.3447 20.7648C24.8453 21.9422 22.8115 22.6039 20.6907 22.6043ZM27.5807 62.2005H13.7865V27.3655H27.5803V62.2002L27.5807 62.2005ZM86.1096 0.00506886H6.86238C3.11695 -0.0280093 0.0454072 2.3271 -0.000366211 5.26706V67.7314C0.0439541 70.6728 3.11513 73.0302 6.86202 72.9994H86.1096C89.8645 73.0359 92.9477 70.6785 92.9996 67.7314V5.26221C92.9462 2.31655 89.8627 -0.0382749 86.1096 0.000221204" fill="#0A66C2"/>
</g>
<defs>
<clipPath id="clip0_129_164">
<rect width="93" height="73" fill="white"/>
</clipPath>
</defs>
</svg>
